<svg width="226" height="147" viewBox="0 0 226 147" fill="none" xmlns="http://www.w3.org/2000/svg">
<rect x="15.2246" y="1.64062" width="208.161" height="119.761" rx="13.8194" transform="rotate(4.92 15.2246 1.64062)" fill="white" fill-opacity="0.3"/>
<rect x="15.2246" y="1.64062" width="208.161" height="119.761" rx="13.8194" transform="rotate(4.92 15.2246 1.64062)" fill="url(#paint0_linear_1124_13961)" fill-opacity="0.1"/>
<g filter="url(#filter0_d_1124_13961)">
<g clip-path="url(#clip0_1124_13961)">
<rect x="19.4189" y="6.625" width="196.854" height="110.548" rx="6.62546" transform="rotate(4.92 19.4189 6.625)" fill="white"/>
<g clip-path="url(#clip1_1124_13961)">
<mask id="path-4-inside-1_1124_13961" fill="white">
<path d="M19.4189 6.625L215.548 23.5081L206.067 133.649L9.93783 116.766L19.4189 6.625Z"/>
</mask>
<path d="M19.4189 6.625L215.548 23.5081L206.067 133.649L9.93783 116.766L19.4189 6.625Z" fill="white"/>
<rect x="29.7578" y="15.2734" width="179.246" height="16.6255" rx="2.20849" transform="rotate(4.92 29.7578 15.2734)" fill="#EEF2FF"/>
<g clip-path="url(#clip2_1124_13961)">
<mask id="path-7-inside-2_1124_13961" fill="white">
<path d="M30.5743 18.6691C30.6789 17.4539 31.7488 16.5536 32.964 16.6582L115.656 23.7764C116.871 23.881 117.771 24.951 117.667 26.1662L116.809 36.1293C116.705 37.3446 115.635 38.2449 114.419 38.1403L31.7276 31.022C30.5123 30.9174 29.612 29.8475 29.7166 28.6323L30.5743 18.6691Z"/>
</mask>
<path d="M30.5743 18.6691C30.6789 17.4539 31.7488 16.5536 32.964 16.6582L115.656 23.7764C116.871 23.881 117.771 24.951 117.667 26.1662L116.809 36.1293C116.705 37.3446 115.635 38.2449 114.419 38.1403L31.7276 31.022C30.5123 30.9174 29.612 29.8475 29.7166 28.6323L30.5743 18.6691Z" fill="white"/>
<g clip-path="url(#clip3_1124_13961)">
<path d="M41.6964 24.6456L42.7019 25.8404L45.0917 23.8295M47.0139 25.1033C46.8396 27.1287 45.0564 28.6292 43.031 28.4549C41.0056 28.2805 39.5051 26.4973 39.6794 24.4719C39.8538 22.4466 41.637 20.946 43.6624 21.1204C45.6877 21.2947 47.1883 23.0779 47.0139 25.1033Z" stroke="#22C55E" stroke-width="0.736162" stroke-linecap="round" stroke-linejoin="round"/>
</g>
<path d="M52.6005 28.594L53.0712 23.1261L53.7335 23.1832L53.2628 28.651L52.6005 28.594ZM54.659 28.7712L55.0104 24.6896L55.6034 24.7406L55.537 25.7823L55.4659 25.7063C55.5381 25.4694 55.6449 25.2795 55.7865 25.1365C55.9286 24.9884 56.0928 24.8836 56.2791 24.8221C56.4706 24.761 56.6715 24.7395 56.882 24.7576C57.1952 24.7845 57.446 24.8759 57.6343 25.0318C57.8277 25.1881 57.963 25.3885 58.0402 25.6331C58.123 25.873 58.1521 26.1367 58.1273 26.4242L57.9012 29.0503L57.2543 28.9946L57.4645 26.5533C57.4862 26.3018 57.4735 26.0886 57.4264 25.9139C57.385 25.7345 57.3038 25.5956 57.183 25.4973C57.0626 25.3938 56.8997 25.3332 56.6944 25.3155C56.3812 25.2886 56.1133 25.3664 55.8907 25.5489C55.6737 25.7268 55.5488 26.0057 55.5161 26.3856L55.3059 28.8269L54.659 28.7712ZM60.6298 29.3783C60.2499 29.3456 59.9262 29.2298 59.6589 29.0309C59.3967 28.8325 59.2023 28.5675 59.0756 28.2359C58.9495 27.8992 58.9049 27.5152 58.942 27.084C58.9792 26.6527 59.0884 26.2845 59.2699 25.9795C59.4513 25.6744 59.6881 25.4465 59.9804 25.2958C60.2783 25.1404 60.6172 25.0791 60.9971 25.1118C61.3103 25.1388 61.5826 25.2191 61.8142 25.3528C62.0514 25.4819 62.2379 25.6583 62.3738 25.882C62.5097 26.1058 62.5877 26.3711 62.6079 26.678L61.9262 26.6659C61.9034 26.3898 61.8032 26.1717 61.6256 26.0116C61.4485 25.8463 61.2213 25.7518 60.944 25.7279C60.5693 25.6956 60.2649 25.8065 60.031 26.0605C59.7975 26.3094 59.6604 26.67 59.6198 27.1423C59.5791 27.6146 59.6523 27.9959 59.8394 28.2862C60.0269 28.5712 60.3081 28.7299 60.6828 28.7622C60.9601 28.7861 61.2003 28.7292 61.4035 28.5915C61.6068 28.4538 61.7447 28.2329 61.8175 27.9289L62.4912 28.0334C62.4189 28.3324 62.296 28.5881 62.1226 28.8008C61.9495 29.0083 61.7345 29.1631 61.4775 29.2651C61.2255 29.3675 60.943 29.4052 60.6298 29.3783ZM64.011 29.5763C63.7749 29.5559 63.5876 29.4777 63.4493 29.3417C63.3111 29.2057 63.2534 29.0042 63.2764 28.7372L63.6808 24.0394L64.3277 24.0951L63.9279 28.739C63.9209 28.8211 63.9359 28.8871 63.973 28.9368C64.0156 28.9818 64.0781 29.0079 64.1602 29.015L64.5145 29.0455L64.4654 29.6154L64.011 29.5763ZM66.5201 29.8853C66.1145 29.8504 65.8002 29.6863 65.5772 29.393C65.3597 29.095 65.2718 28.7047 65.3133 28.222L65.5394 25.5959L66.1863 25.6516L65.9755 28.1006C65.9415 28.4959 65.9856 28.7945 66.1079 28.9964C66.2357 29.1936 66.4459 29.3048 66.7386 29.33C67.062 29.3579 67.325 29.2771 67.5275 29.0876C67.7305 28.893 67.8476 28.6135 67.879 28.2489L68.0885 25.8154L68.7354 25.871L68.3841 29.9527L67.768 29.8997L67.8548 28.8908L67.9503 28.9533C67.8394 29.28 67.6605 29.5258 67.4135 29.6907C67.167 29.8505 66.8692 29.9154 66.5201 29.8853ZM70.9824 30.2695C70.6282 30.239 70.3276 30.1252 70.0808 29.9281C69.8391 29.7314 69.6627 29.468 69.5515 29.1377C69.4402 28.8075 69.4034 28.4241 69.441 27.9877C69.4785 27.5513 69.5803 27.1799 69.7464 26.8735C69.9124 26.5672 70.1313 26.3377 70.403 26.1853C70.6799 26.0333 70.9954 25.9725 71.3497 26.003C71.6218 26.0264 71.8657 26.1069 72.0815 26.2444C72.2976 26.3768 72.4531 26.5531 72.548 26.7733L72.7164 24.8172L73.3633 24.8729L72.8926 30.3408L72.3073 30.2904L72.3372 29.6723C72.2053 29.8834 72.0182 30.0431 71.7762 30.1516C71.5345 30.2549 71.2699 30.2942 70.9824 30.2695ZM71.1664 29.6646C71.4077 29.6854 71.6158 29.6413 71.7907 29.5322C71.9707 29.4235 72.1141 29.26 72.2208 29.0416C72.328 28.8181 72.3948 28.5523 72.4214 28.2443C72.4488 27.926 72.4285 27.6501 72.3607 27.4167C72.2929 27.1833 72.1793 27.0002 72.0201 26.8676C71.8664 26.7302 71.6689 26.6511 71.4276 26.6304C71.0682 26.5994 70.769 26.7107 70.5299 26.9643C70.2964 27.2131 70.1594 27.5737 70.1187 28.0461C70.0785 28.5133 70.1519 28.892 70.339 29.1822C70.5312 29.4729 70.807 29.6337 71.1664 29.6646ZM75.6337 30.6698C75.2486 30.6367 74.9224 30.5207 74.655 30.3218C74.3928 30.1234 74.1984 29.8584 74.0718 29.5268C73.9507 29.1906 73.9088 28.8068 73.9459 28.3755C73.983 27.9442 74.0897 27.5759 74.266 27.2704C74.4474 26.9653 74.6817 26.7372 74.9689 26.5861C75.2616 26.4302 75.5953 26.3685 75.9701 26.4007C76.3244 26.4312 76.6303 26.5429 76.8878 26.7357C77.1458 26.9235 77.3355 27.1829 77.457 27.514C77.5836 27.8456 77.6272 28.2398 77.5879 28.6968L77.5713 28.8893L74.6064 28.6341C74.5945 29.0727 74.6817 29.4112 74.8681 29.6497C75.0596 29.8886 75.3324 30.0233 75.6867 30.0538C75.9537 30.0767 76.1772 30.0339 76.3572 29.9253C76.5428 29.8119 76.6778 29.6555 76.7623 29.4558L77.4507 29.5694C77.3115 29.9247 77.0803 30.2073 76.7571 30.4174C76.4394 30.6228 76.0649 30.707 75.6337 30.6698ZM74.6554 28.0642L76.9119 28.2584C76.9151 27.8605 76.8246 27.5604 76.6402 27.3584C76.4611 27.1567 76.22 27.0429 75.9171 27.0168C75.6039 26.9899 75.3362 27.0651 75.1141 27.2425C74.8975 27.4152 74.7446 27.6891 74.6554 28.0642Z" fill="#22C55E"/>
</g>
<path d="M30.7637 16.4688L117.856 23.9658L30.7637 16.4688M116.809 36.1293C116.678 37.6484 115.341 38.7738 113.822 38.643L32.2303 31.6195C30.7113 31.4887 29.5859 30.1513 29.7166 28.6323V28.6323C29.6382 29.5437 30.5597 30.3673 31.7749 30.4719L114.467 37.5902C115.682 37.6948 116.731 37.0408 116.809 36.1293V36.1293ZM116.809 36.1293M29.5272 30.8326L30.7637 16.4688L29.5272 30.8326M29.5272 30.8326M117.856 23.9658L116.62 38.3297L117.856 23.9658" fill="#EFF1F4" mask="url(#path-7-inside-2_1124_13961)"/>
<g clip-path="url(#clip4_1124_13961)">
<mask id="path-11-inside-3_1124_13961" fill="white">
<path d="M119.866 26.3546C119.971 25.1394 121.041 24.2391 122.256 24.3437L204.948 31.462C206.163 31.5666 207.063 32.6365 206.959 33.8517L206.101 43.8149C205.997 45.0301 204.927 45.9304 203.711 45.8258L121.02 38.7076C119.804 38.603 118.904 37.533 119.009 36.3178L119.866 26.3546Z"/>
</mask>
<path d="M119.866 26.3546C119.971 25.1394 121.041 24.2391 122.256 24.3437L204.948 31.462C206.163 31.5666 207.063 32.6365 206.959 33.8517L206.101 43.8149C205.997 45.0301 204.927 45.9304 203.711 45.8258L121.02 38.7076C119.804 38.603 118.904 37.533 119.009 36.3178L119.866 26.3546Z" fill="white"/>
<g clip-path="url(#clip5_1124_13961)">
<path d="M133.018 28.0722C130.587 27.863 128.448 29.6636 128.238 32.094C128.029 34.5245 129.83 36.6643 132.26 36.8736C134.691 37.0828 136.831 35.2821 137.04 32.8517C137.246 30.4221 135.447 28.2839 133.018 28.0722ZM130.442 29.3856C131.175 28.8651 132.069 28.6224 132.964 28.7009C133.855 28.7773 134.691 29.1686 135.32 29.8046L129.551 34.6596C128.34 32.9569 128.74 30.5957 130.442 29.3856ZM134.836 35.5601C134.103 36.0806 133.209 36.3234 132.314 36.2449C131.423 36.1684 130.588 35.7772 129.958 35.1411L135.728 30.2862C136.938 31.9888 136.538 34.3501 134.836 35.5601Z" fill="#334155"/>
</g>
<path d="M141.893 36.2796L142.363 30.8117L145.798 31.1074L145.742 31.7543L142.97 31.5156L142.818 33.2792L145.498 33.5099L145.444 34.1414L142.764 33.9107L142.611 35.6897L145.445 35.9336L145.389 36.5805L141.893 36.2796ZM145.953 36.6291L147.635 34.6636L146.381 32.5541L147.136 32.6191L148.074 34.2514L149.246 32.8007L150.016 32.867L148.435 34.748L149.734 36.9546L148.98 36.8896L147.997 35.1448L146.723 36.6954L145.953 36.6291ZM151.915 37.2354C151.535 37.2027 151.211 37.0869 150.944 36.888C150.682 36.6896 150.487 36.4246 150.361 36.093C150.234 35.7563 150.19 35.3723 150.227 34.9411C150.264 34.5098 150.373 34.1416 150.555 33.8366C150.736 33.5315 150.973 33.3036 151.265 33.1529C151.563 32.9976 151.902 32.9362 152.282 32.9689C152.595 32.9959 152.868 33.0762 153.099 33.2099C153.336 33.339 153.523 33.5154 153.659 33.7391C153.795 33.9629 153.873 34.2282 153.893 34.5351L153.211 34.523C153.188 34.2469 153.088 34.0288 152.911 33.8687C152.733 33.7034 152.506 33.6089 152.229 33.585C151.854 33.5528 151.55 33.6636 151.316 33.9176C151.082 34.1665 150.945 34.5271 150.905 34.9994C150.864 35.4717 150.937 35.853 151.124 36.1433C151.312 36.4284 151.593 36.587 151.968 36.6193C152.245 36.6432 152.485 36.5863 152.689 36.4486C152.892 36.3109 153.03 36.09 153.102 35.786L153.776 35.8905C153.704 36.1895 153.581 36.4452 153.408 36.6579C153.235 36.8654 153.019 37.0202 152.762 37.1222C152.511 37.2246 152.228 37.2624 151.915 37.2354ZM155.296 37.4334C155.06 37.413 154.873 37.3348 154.734 37.1988C154.596 37.0628 154.538 36.8613 154.561 36.5943L154.966 31.8965L155.613 31.9522L155.213 36.5961C155.206 36.6782 155.221 36.7442 155.258 36.7939C155.301 36.839 155.363 36.865 155.445 36.8721L155.799 36.9026L155.75 37.4725L155.296 37.4334ZM157.805 37.7424C157.399 37.7075 157.085 37.5434 156.862 37.2501C156.645 36.9521 156.557 36.5618 156.598 36.0791L156.824 33.453L157.471 33.5087L157.26 35.9577C157.226 36.353 157.271 36.6516 157.393 36.8535C157.521 37.0507 157.731 37.1619 158.024 37.1871C158.347 37.215 158.61 37.1342 158.813 36.9447C159.015 36.7501 159.133 36.4706 159.164 36.106L159.373 33.6725L160.02 33.7281L159.669 37.8098L159.053 37.7568L159.14 36.7479L159.235 36.8104C159.124 37.1371 158.945 37.3829 158.699 37.5478C158.452 37.7076 158.154 37.7725 157.805 37.7424ZM162.267 38.1266C161.913 38.0961 161.613 37.9823 161.366 37.7852C161.124 37.5885 160.948 37.3251 160.836 36.9948C160.725 36.6646 160.688 36.2812 160.726 35.8448C160.764 35.4084 160.865 35.037 161.031 34.7307C161.197 34.4243 161.416 34.1948 161.688 34.0424C161.965 33.8904 162.28 33.8296 162.635 33.8601C162.907 33.8835 163.151 33.964 163.366 34.1015C163.583 34.2339 163.738 34.4102 163.833 34.6305L164.001 32.6743L164.648 32.73L164.178 38.1979L163.592 38.1475L163.622 37.5294C163.49 37.7405 163.303 37.9002 163.061 38.0087C162.819 38.112 162.555 38.1513 162.267 38.1266ZM162.451 37.5217C162.693 37.5425 162.901 37.4984 163.076 37.3893C163.256 37.2806 163.399 37.1171 163.506 36.8987C163.613 36.6752 163.68 36.4094 163.706 36.1014C163.734 35.7831 163.714 35.5072 163.646 35.2738C163.578 35.0404 163.464 34.8573 163.305 34.7247C163.151 34.5873 162.954 34.5082 162.713 34.4875C162.353 34.4565 162.054 34.5678 161.815 34.8214C161.581 35.0702 161.444 35.4308 161.404 35.9032C161.363 36.3704 161.437 36.7491 161.624 37.0393C161.816 37.33 162.092 37.4908 162.451 37.5217ZM166.919 38.527C166.534 38.4938 166.207 38.3778 165.94 38.1789C165.678 37.9805 165.483 37.7155 165.357 37.3839C165.236 37.0477 165.194 36.6639 165.231 36.2326C165.268 35.8014 165.375 35.433 165.551 35.1275C165.732 34.8224 165.967 34.5943 166.254 34.4432C166.547 34.2873 166.88 34.2256 167.255 34.2578C167.609 34.2883 167.915 34.4 168.173 34.5928C168.431 34.7806 168.62 35.04 168.742 35.3711C168.869 35.7027 168.912 36.097 168.873 36.5539L168.856 36.7464L165.891 36.4912C165.879 36.9298 165.967 37.2683 166.153 37.5068C166.345 37.7457 166.617 37.8804 166.972 37.9109C167.239 37.9338 167.462 37.891 167.642 37.7824C167.828 37.6691 167.963 37.5126 168.047 37.313L168.736 37.4265C168.597 37.7818 168.365 38.0644 168.042 38.2745C167.724 38.4799 167.35 38.5641 166.919 38.527ZM165.94 35.9213L168.197 36.1155C168.2 35.7176 168.11 35.4175 167.925 35.2155C167.746 35.0138 167.505 34.9 167.202 34.8739C166.889 34.847 166.621 34.9222 166.399 35.0996C166.182 35.2723 166.03 35.5462 165.94 35.9213Z" fill="#334155"/>
</g>
<path d="M120.056 24.1543L207.148 31.6514L120.056 24.1543M206.101 43.8149C205.97 45.3339 204.633 46.4593 203.114 46.3286L121.522 39.305C120.003 39.1742 118.878 37.8368 119.009 36.3178V36.3178C118.93 37.2292 119.852 38.0529 121.067 38.1575L203.759 45.2757C204.974 45.3803 206.023 44.7263 206.101 43.8149V43.8149ZM206.101 43.8149M118.819 38.5181L120.056 24.1543L118.819 38.5181M118.819 38.5181M207.148 31.6514L205.912 46.0152L207.148 31.6514" fill="#EFF1F4" mask="url(#path-11-inside-3_1124_13961)"/>
<path d="M31.0403 38.9989L203.025 53.8037C204.696 53.9476 205.934 55.4182 205.79 57.089L204.464 72.492C204.32 74.1627 202.849 75.4003 201.179 75.2566L29.1936 60.4518C27.5229 60.3078 26.2854 58.8372 26.429 57.1664L27.7549 41.7635C27.8989 40.0927 29.3695 38.8552 31.0403 38.9989Z" fill="white"/>
<path d="M31.0403 38.9989L203.025 53.8037C204.696 53.9476 205.934 55.4182 205.79 57.089L204.464 72.492C204.32 74.1627 202.849 75.4003 201.179 75.2566L29.1936 60.4518C27.5229 60.3078 26.2854 58.8372 26.429 57.1664L27.7549 41.7635C27.8989 40.0927 29.3695 38.8552 31.0403 38.9989Z" stroke="#EEF2FF" stroke-width="0.552122"/>
<path d="M36.0391 52.3663C35.5514 52.3243 35.1324 52.1745 34.7822 51.9167C34.4324 51.6539 34.1732 51.3005 34.0045 50.8567C33.8358 50.4129 33.7769 49.8958 33.8277 49.3054C33.8786 48.7149 34.025 48.2155 34.267 47.807C34.5095 47.3935 34.8256 47.0871 35.2151 46.8878C35.6046 46.6886 36.0433 46.61 36.531 46.652C37.1933 46.709 37.6924 46.9201 38.0282 47.2852C38.364 47.6503 38.5636 48.1252 38.6271 48.7099L37.9223 48.6958C37.8789 48.299 37.7411 47.9768 37.5089 47.7292C37.2768 47.4817 36.9323 47.3382 36.4753 47.2989C36.1262 47.2688 35.8104 47.3322 35.528 47.4889C35.2511 47.6409 35.0239 47.8774 34.8463 48.1983C34.6691 48.514 34.5606 48.903 34.5208 49.365C34.4811 49.8271 34.5215 50.2288 34.6421 50.5703C34.7627 50.9117 34.9464 51.1809 35.1932 51.378C35.4452 51.5755 35.7457 51.6893 36.0948 51.7194C36.5723 51.7605 36.9526 51.6691 37.2356 51.4452C37.5191 51.2162 37.7126 50.8915 37.816 50.4711L38.5128 50.5776C38.4121 50.9672 38.2513 51.3025 38.0306 51.5835C37.8099 51.8644 37.5305 52.0757 37.1924 52.2173C36.86 52.3542 36.4755 52.4039 36.0391 52.3663ZM40.8036 52.7454C40.4288 52.7131 40.1077 52.5976 39.8403 52.3987C39.573 52.1998 39.376 51.9346 39.2494 51.603C39.1232 51.2663 39.0787 50.8823 39.1158 50.4511C39.1534 50.0147 39.2629 49.6439 39.4443 49.3389C39.6257 49.0338 39.8651 48.8062 40.1625 48.6559C40.4599 48.5057 40.796 48.4467 41.1708 48.4789C41.5456 48.5112 41.8641 48.6265 42.1263 48.825C42.3937 49.0238 42.5907 49.289 42.7173 49.6206C42.8439 49.9522 42.8884 50.3362 42.8509 50.7726C42.8138 51.2039 42.7043 51.5746 42.5224 51.8848C42.341 52.1898 42.1016 52.4175 41.8041 52.5677C41.5119 52.7184 41.1783 52.7777 40.8036 52.7454ZM40.8566 52.1293C41.2314 52.1616 41.533 52.053 41.7613 51.8037C41.9952 51.5498 42.1325 51.1866 42.1732 50.7143C42.2138 50.2419 42.1404 49.8632 41.9529 49.5781C41.7709 49.2883 41.4926 49.1273 41.1178 49.095C40.743 49.0628 40.4386 49.1736 40.2047 49.4276C39.9712 49.6765 39.8342 50.0371 39.7935 50.5094C39.7528 50.9817 39.826 51.363 40.0131 51.6533C40.2006 51.9384 40.4818 52.097 40.8566 52.1293ZM43.5568 52.8893L43.9082 48.8077L44.5012 48.8587L44.4354 49.8927L44.3457 49.8539C44.4113 49.632 44.5075 49.4463 44.6341 49.2969C44.7664 49.1427 44.9209 49.0293 45.0979 48.9566C45.2753 48.8788 45.4666 48.8487 45.672 48.8664C46.0263 48.8969 46.3054 49.0192 46.5093 49.2333C46.7185 49.4478 46.8362 49.7321 46.8626 50.0861L46.7401 50.0678C46.8015 49.8351 46.893 49.6439 47.0145 49.494C47.1416 49.3394 47.2961 49.226 47.4782 49.1538C47.6603 49.0815 47.8643 49.0551 48.0902 49.0746C48.3828 49.0997 48.624 49.1826 48.8136 49.323C49.0037 49.4583 49.1401 49.6459 49.2229 49.8858C49.3057 50.1257 49.3329 50.4099 49.3047 50.7385L49.0786 53.3646L48.4317 53.3089L48.6458 50.8214C48.6776 50.4518 48.6296 50.1684 48.5018 49.9712C48.3744 49.7688 48.1695 49.6555 47.8871 49.6312C47.6971 49.6148 47.5263 49.6467 47.3746 49.7267C47.228 49.8072 47.1087 49.9314 47.0167 50.0993C46.9251 50.2621 46.8687 50.4668 46.8475 50.7132L46.6373 53.1545L45.9904 53.0988L46.2005 50.6575C46.2319 50.293 46.1923 50.0025 46.0816 49.7861C45.9709 49.5697 45.7641 49.4484 45.4612 49.4224C45.2713 49.406 45.1004 49.4379 44.9487 49.5179C44.8021 49.5984 44.6803 49.7224 44.5831 49.8898C44.491 50.0578 44.4346 50.2624 44.4139 50.5037L44.2037 52.945L43.5568 52.8893ZM50.0606 54.6129L50.5114 49.3761L51.1121 49.4278L51.0519 50.307L50.9635 50.2529C51.0922 49.9588 51.2813 49.7449 51.5307 49.6112C51.7857 49.4728 52.0698 49.4171 52.383 49.4441C52.7886 49.479 53.1112 49.6076 53.3506 49.83C53.5952 50.0527 53.7652 50.3311 53.8606 50.6652C53.9611 50.9997 53.9952 51.3543 53.963 51.7291C53.9307 52.1039 53.8365 52.4475 53.6803 52.7599C53.5292 53.0728 53.3141 53.318 53.0351 53.4957C52.7611 53.6739 52.4214 53.7455 52.0158 53.7106C51.8053 53.6924 51.6107 53.6395 51.432 53.5517C51.2585 53.4644 51.1131 53.351 50.9958 53.2116C50.8836 53.0726 50.812 52.9139 50.7808 52.7353L50.8825 52.6355L50.7075 54.6686L50.0606 54.6129ZM52.0072 53.0892C52.3614 53.1197 52.6527 53.0103 52.8811 52.761C53.1094 52.5117 53.2442 52.1483 53.2853 51.6708C53.3264 51.1933 53.2557 50.8123 53.0733 50.5276C52.891 50.243 52.6226 50.0854 52.2684 50.0549C52.0322 50.0346 51.822 50.0733 51.6377 50.1713C51.4585 50.2696 51.3105 50.4276 51.1935 50.6451C51.0816 50.863 51.0113 51.1389 50.9826 51.4726C50.9539 51.8063 50.976 52.0901 51.049 52.3239C51.1219 52.5578 51.2408 52.7387 51.4057 52.8667C51.5705 52.9947 51.771 53.0688 52.0072 53.0892ZM55.8635 54.0418C55.4425 54.0055 55.1146 53.8791 54.8799 53.6623C54.6502 53.446 54.5504 53.1633 54.5805 52.8141C54.6105 52.465 54.7369 52.1992 54.9595 52.0166C55.1821 51.8341 55.5202 51.721 55.974 51.6773L57.445 51.5323C57.4746 51.1884 57.4146 50.9246 57.2649 50.741C57.1203 50.5579 56.8863 50.4524 56.5628 50.4246C56.2805 50.4002 56.0516 50.4452 55.8762 50.5594C55.7013 50.6685 55.5729 50.8385 55.491 51.0693L54.8102 50.9564C54.9204 50.578 55.1319 50.2833 55.4449 50.0723C55.7635 49.8566 56.1538 49.7687 56.6159 49.8085C57.1395 49.8535 57.5272 50.0369 57.7788 50.3585C58.0309 50.6751 58.1346 51.0926 58.0899 51.6111L57.9447 53.2977C57.9368 53.3901 57.9464 53.4582 57.9737 53.5019C58.0066 53.5409 58.0615 53.5638 58.1385 53.5704L58.3002 53.5843L58.2512 54.1542C58.2302 54.1576 58.1966 54.1573 58.1504 54.1533C58.1037 54.1545 58.0547 54.1528 58.0034 54.1484C57.8186 54.1325 57.6695 54.0912 57.5563 54.0246C57.4487 53.9533 57.3745 53.8538 57.3338 53.7261C57.2935 53.5934 57.2822 53.4243 57.2998 53.2189L57.3755 53.2409C57.3246 53.4124 57.2236 53.5641 57.0726 53.6959C56.922 53.8226 56.7405 53.9182 56.5281 53.9826C56.3161 54.042 56.0946 54.0617 55.8635 54.0418ZM55.9742 53.4772C56.2463 53.5006 56.4818 53.4692 56.6806 53.3828C56.885 53.2918 57.0462 53.1609 57.1644 52.99C57.283 52.814 57.352 52.6131 57.3714 52.3872L57.3966 52.0945L56.0508 52.227C55.7691 52.2544 55.5697 52.3174 55.4527 52.416C55.3411 52.5098 55.2781 52.6414 55.2635 52.8109C55.2471 53.0008 55.3011 53.1555 55.4253 53.2748C55.5551 53.3894 55.738 53.4569 55.9742 53.4772ZM58.9818 54.2171L59.3332 50.1355L59.9262 50.1865L59.8598 51.2282L59.7887 51.1522C59.8608 50.9153 59.9677 50.7254 60.1093 50.5824C60.2514 50.4343 60.4156 50.3295 60.6019 50.268C60.7933 50.2069 60.9943 50.1854 61.2048 50.2035C61.518 50.2304 61.7688 50.3219 61.9571 50.4777C62.1505 50.634 62.2858 50.8344 62.363 51.079C62.4458 51.3189 62.4748 51.5826 62.4501 51.8701L62.224 54.4962L61.5771 54.4405L61.7873 51.9992C61.8089 51.7477 61.7963 51.5345 61.7492 51.3598C61.7078 51.1804 61.6266 51.0415 61.5058 50.9432C61.3854 50.8397 61.2225 50.7791 61.0171 50.7614C60.704 50.7345 60.4361 50.8123 60.2135 50.9948C59.9964 51.1727 59.8716 51.4516 59.8389 51.8315L59.6287 54.2728L58.9818 54.2171ZM63.2711 55.7501L63.3202 55.1802L63.7899 55.2206C63.9337 55.233 64.0409 55.219 64.1117 55.1785C64.1871 55.1436 64.247 55.079 64.2913 54.9845L64.4708 54.612L64.2474 54.5928L63.0981 50.4596L63.8066 50.5206L64.7304 54.0292L66.1863 50.7254L66.8948 50.7864L64.8433 55.2415C64.7473 55.4556 64.6178 55.6074 64.455 55.6968C64.2921 55.7863 64.0746 55.8193 63.8025 55.7958L63.2711 55.7501ZM69.2551 55.1015L69.6065 51.0198L70.1995 51.0709L70.1331 52.1125L70.062 52.0366C70.1342 51.7997 70.241 51.6098 70.3826 51.4668C70.5247 51.3187 70.6889 51.2138 70.8752 51.1523C71.0667 51.0912 71.2676 51.0697 71.4781 51.0878C71.7913 51.1148 72.0421 51.2062 72.2304 51.3621C72.4238 51.5184 72.5591 51.7188 72.6363 51.9634C72.7191 52.2032 72.7482 52.4669 72.7234 52.7544L72.4973 55.3806L71.8504 55.3249L72.0606 52.8836C72.0823 52.632 72.0696 52.4189 72.0225 52.2441C71.9811 52.0647 71.8999 51.9258 71.7791 51.8275C71.6587 51.724 71.4958 51.6635 71.2905 51.6458C70.9773 51.6188 70.7094 51.6966 70.4868 51.8792C70.2698 52.057 70.1449 52.3359 70.1122 52.7159L69.902 55.1572L69.2551 55.1015ZM74.7481 55.6674C74.3271 55.6312 73.9992 55.5047 73.7644 55.2879C73.5348 55.0716 73.435 54.7889 73.465 54.4398C73.4951 54.0906 73.6214 53.8248 73.844 53.6423C74.0666 53.4597 74.4048 53.3466 74.8585 53.3029L76.3296 53.158C76.3592 52.814 76.2991 52.5502 76.1494 52.3666C76.0048 52.1835 75.7708 52.078 75.4474 52.0502C75.165 52.0259 74.9361 52.0708 74.7608 52.185C74.5859 52.2941 74.4575 52.4641 74.3755 52.6949L73.6948 52.582C73.8049 52.2036 74.0165 51.9089 74.3295 51.6979C74.648 51.4822 75.0383 51.3943 75.5004 51.4341C76.0241 51.4792 76.4117 51.6625 76.6633 51.9842C76.9154 52.3007 77.0191 52.7182 76.9745 53.2368L76.8293 54.9233C76.8213 55.0157 76.831 55.0838 76.8583 55.1275C76.8911 55.1666 76.946 55.1894 77.023 55.196L77.1848 55.2099L77.1357 55.7798C77.1147 55.7832 77.0811 55.7829 77.0349 55.7789C76.9883 55.7801 76.9393 55.7784 76.8879 55.774C76.7031 55.7581 76.5541 55.7168 76.4409 55.6502C76.3332 55.5789 76.259 55.4794 76.2183 55.3517C76.178 55.219 76.1667 55.0499 76.1844 54.8445L76.2601 54.8666C76.2091 55.038 76.1081 55.1897 75.9571 55.3215C75.8066 55.4482 75.6251 55.5438 75.4126 55.6082C75.2006 55.6676 74.9791 55.6873 74.7481 55.6674ZM74.8587 55.1028C75.1309 55.1262 75.3663 55.0948 75.5651 55.0085C75.7695 54.9174 75.9308 54.7865 76.0489 54.6156C76.1675 54.4397 76.2365 54.2387 76.256 54.0128L76.2812 53.7202L74.9353 53.8526C74.6537 53.88 74.4543 53.9431 74.3372 54.0416C74.2257 54.1354 74.1626 54.2671 74.148 54.4365C74.1317 54.6265 74.1856 54.7811 74.3098 54.9004C74.4396 55.015 74.6226 55.0825 74.8587 55.1028ZM77.8664 55.8427L78.2177 51.7611L78.8107 51.8121L78.745 52.8461L78.6552 52.8073C78.7209 52.5854 78.817 52.3997 78.9437 52.2503C79.0759 52.0962 79.2305 51.9827 79.4074 51.91C79.5848 51.8322 79.7762 51.8021 79.9816 51.8198C80.3358 51.8503 80.6149 51.9726 80.8189 52.1867C81.028 52.4013 81.1458 52.6855 81.1722 53.0395L81.0496 53.0212C81.111 52.7886 81.2025 52.5973 81.324 52.4474C81.4511 52.2929 81.6057 52.1794 81.7878 52.1072C81.9698 52.0349 82.1738 52.0085 82.3997 52.028C82.6924 52.0532 82.9335 52.136 83.1231 52.2765C83.3132 52.4118 83.4496 52.5994 83.5324 52.8393C83.6152 53.0791 83.6425 53.3634 83.6142 53.6919L83.3881 56.3181L82.7412 56.2624L82.9554 53.7749C82.9872 53.4052 82.9392 53.1218 82.8113 52.9246C82.6839 52.7222 82.479 52.6089 82.1967 52.5846C82.0067 52.5683 81.8359 52.6001 81.6841 52.6801C81.5376 52.7606 81.4183 52.8848 81.3262 53.0528C81.2346 53.2156 81.1782 53.4202 81.157 53.6666L80.9469 56.1079L80.3 56.0522L80.5101 53.6109C80.5415 53.2464 80.5018 52.9559 80.3912 52.7395C80.2805 52.5231 80.0737 52.4019 79.7708 52.3758C79.5808 52.3594 79.41 52.3913 79.2583 52.4713C79.1117 52.5518 78.9898 52.6758 78.8926 52.8433C78.8006 53.0112 78.7442 53.2158 78.7234 53.4571L78.5133 55.8984L77.8664 55.8427ZM86.1159 56.646C85.7309 56.6128 85.4047 56.4968 85.1373 56.2979C84.8751 56.0995 84.6807 55.8345 84.554 55.5029C84.433 55.1667 84.391 54.7829 84.4282 54.3516C84.4653 53.9204 84.572 53.552 84.7483 53.2465C84.9297 52.9414 85.164 52.7133 85.4511 52.5622C85.7438 52.4064 86.0776 52.3446 86.4524 52.3768C86.8066 52.4073 87.1125 52.519 87.3701 52.7119C87.628 52.8996 87.8178 53.159 87.9392 53.4901C88.0659 53.8217 88.1095 54.216 88.0702 54.6729L88.0536 54.8654L85.0886 54.6102C85.0767 55.0488 85.164 55.3874 85.3503 55.6258C85.5418 55.8647 85.8147 55.9994 86.169 56.0299C86.4359 56.0529 86.6594 56.01 86.8395 55.9014C87.0251 55.7881 87.1601 55.6316 87.2445 55.432L87.933 55.5455C87.7938 55.9008 87.5626 56.1835 87.2393 56.3936C86.9217 56.599 86.5472 56.6831 86.1159 56.646ZM85.1377 54.0403L87.3941 54.2346C87.3974 53.8366 87.3068 53.5366 87.1225 53.3345C86.9433 53.1329 86.7023 53.019 86.3994 52.9929C86.0862 52.966 85.8185 53.0412 85.5963 53.2186C85.3798 53.3914 85.2269 53.6653 85.1377 54.0403ZM88.4891 57.9675L88.9621 56.7979L88.5694 56.7641L88.6443 55.8938L89.5145 55.9687L89.4489 56.7312L88.8741 58.0006L88.4891 57.9675ZM90.9039 56.965L89.9922 52.7747L90.7007 52.8356L91.3627 56.3218L92.626 53.0014L93.3192 53.061L93.9965 56.5485L95.2522 53.2274L95.9607 53.2884L94.3463 57.2614L93.53 57.1911L92.8884 54.0093L91.7125 57.0346L90.9039 56.965ZM97.7806 57.6501C97.3955 57.6169 97.0693 57.5009 96.802 57.3021C96.5397 57.1036 96.3453 56.8386 96.2187 56.5071C96.0976 56.1708 96.0557 55.787 96.0928 55.3558C96.1299 54.9245 96.2366 54.5561 96.4129 54.2506C96.5944 53.9455 96.8286 53.7174 97.1158 53.5663C97.4085 53.4105 97.7422 53.3487 98.117 53.381C98.4713 53.4115 98.7772 53.5231 99.0347 53.716C99.2927 53.9037 99.4824 54.1631 99.6039 54.4943C99.7305 54.8258 99.7742 55.2201 99.7348 55.677L99.7182 55.8696L96.7533 55.6143C96.7414 56.0529 96.8286 56.3915 97.015 56.6299C97.2065 56.8688 97.4793 57.0035 97.8336 57.034C98.1006 57.057 98.3241 57.0141 98.5041 56.9055C98.6897 56.7922 98.8247 56.6357 98.9092 56.4361L99.5976 56.5497C99.4584 56.9049 99.2272 57.1876 98.904 57.3977C98.5863 57.6031 98.2118 57.6872 97.7806 57.6501ZM96.8023 55.0444L99.0588 55.2387C99.062 54.8407 98.9715 54.5407 98.7871 54.3386C98.608 54.137 98.3669 54.0231 98.064 53.9971C97.7508 53.9701 97.4831 54.0453 97.261 54.2227C97.0444 54.3955 96.8915 54.6694 96.8023 55.0444ZM102.3 58.0391C102.017 58.0148 101.771 57.9315 101.561 57.7893C101.351 57.6419 101.197 57.4528 101.097 57.2219L101.021 57.836L100.436 57.7856L100.907 52.3177L101.554 52.3734L101.385 54.3295C101.503 54.1689 101.675 54.0312 101.902 53.9162C102.129 53.7962 102.384 53.7483 102.667 53.7726C103.026 53.8035 103.329 53.9176 103.576 54.1147C103.823 54.3118 104.004 54.5757 104.121 54.9064C104.237 55.237 104.277 55.6206 104.239 56.057C104.201 56.4934 104.097 56.8646 103.926 57.1705C103.755 57.4765 103.531 57.7054 103.254 57.8575C102.977 58.0095 102.659 58.07 102.3 58.0391ZM102.314 57.4197C102.658 57.4493 102.942 57.3367 103.165 57.0818C103.389 56.8269 103.521 56.4659 103.561 55.9987C103.602 55.5263 103.534 55.148 103.356 54.8638C103.18 54.5745 102.924 54.4154 102.591 54.3867C102.339 54.3651 102.118 54.4081 101.928 54.5159C101.738 54.6185 101.585 54.7785 101.468 54.996C101.356 55.214 101.286 55.4821 101.259 55.8004C101.232 56.1085 101.255 56.382 101.328 56.621C101.406 56.8553 101.527 57.0416 101.691 57.1798C101.86 57.3185 102.068 57.3985 102.314 57.4197ZM106.419 58.3937C106.055 58.3624 105.749 58.2766 105.503 58.1364C105.261 57.9966 105.078 57.8179 104.952 57.6002C104.831 57.3777 104.772 57.1321 104.774 56.8634L105.456 56.8755C105.476 57.1255 105.564 57.3322 105.721 57.4957C105.878 57.654 106.128 57.748 106.472 57.7776C106.75 57.8015 106.974 57.7769 107.146 57.7037C107.323 57.6259 107.421 57.4869 107.438 57.2866C107.447 57.1788 107.429 57.0868 107.384 57.0105C107.339 56.9342 107.244 56.8639 107.1 56.7998C106.956 56.7305 106.739 56.6576 106.451 56.581C106.067 56.4756 105.767 56.3618 105.55 56.2396C105.338 56.1128 105.19 55.9682 105.106 55.8058C105.027 55.6387 104.997 55.4473 105.016 55.2317C105.047 54.8671 105.206 54.5808 105.493 54.3728C105.78 54.1596 106.171 54.0742 106.663 54.1166C106.997 54.1454 107.272 54.2311 107.487 54.3737C107.708 54.5117 107.874 54.6863 107.985 54.8976C108.102 55.1042 108.17 55.3274 108.191 55.5671L107.509 55.5549C107.491 55.4085 107.445 55.2779 107.372 55.163C107.3 55.043 107.2 54.9464 107.072 54.8733C106.944 54.7951 106.787 54.748 106.603 54.7321C106.31 54.7069 106.09 54.7448 105.941 54.8458C105.793 54.9468 105.711 55.0846 105.696 55.2592C105.685 55.3927 105.706 55.5057 105.76 55.5983C105.82 55.6862 105.919 55.7646 106.058 55.8334C106.197 55.8971 106.386 55.9599 106.624 56.0218C107.033 56.1294 107.349 56.2446 107.571 56.3671C107.794 56.4897 107.944 56.6294 108.024 56.7862C108.104 56.9431 108.134 57.1293 108.116 57.345C108.094 57.5965 108.004 57.806 107.844 57.9733C107.691 58.1359 107.489 58.2531 107.24 58.3247C106.996 58.3968 106.722 58.4198 106.419 58.3937ZM108.904 58.5145L109.256 54.4329L109.903 54.4886L109.551 58.5702L108.904 58.5145ZM109.295 53.7924L109.36 53.0377L110.038 53.096L109.973 53.8507L109.295 53.7924ZM111.97 58.7785C111.601 58.7466 111.333 58.6383 111.168 58.4534C111.008 58.2689 110.944 57.997 110.975 57.6376L111.318 53.6484L111.965 53.7041L111.623 57.6779C111.607 57.8627 111.637 57.9946 111.713 58.0736C111.789 58.1525 111.912 58.1993 112.081 58.2139L112.666 58.2643L112.617 58.8341L111.97 58.7785ZM110.586 55.1215L110.635 54.5516L112.969 54.7525L112.919 55.3224L110.586 55.1215ZM114.958 59.1287C114.573 59.0956 114.247 58.9796 113.979 58.7807C113.717 58.5823 113.523 58.3173 113.396 57.9857C113.275 57.6494 113.233 57.2657 113.27 56.8344C113.307 56.4031 113.414 56.0348 113.59 55.7293C113.772 55.4242 114.006 55.1961 114.293 55.045C114.586 54.8891 114.92 54.8274 115.294 54.8596C115.649 54.8901 115.955 55.0018 116.212 55.1946C116.47 55.3824 116.66 55.6418 116.781 55.9729C116.908 56.3045 116.951 56.6987 116.912 57.1557L116.896 57.3482L113.931 57.093C113.919 57.5316 114.006 57.8701 114.192 58.1086C114.384 58.3475 114.657 58.4822 115.011 58.5126C115.278 58.5356 115.501 58.4928 115.681 58.3842C115.867 58.2708 116.002 58.1144 116.087 57.9147L116.775 58.0283C116.636 58.3836 116.405 58.6662 116.081 58.8763C115.764 59.0817 115.389 59.1659 114.958 59.1287ZM113.98 56.5231L116.236 56.7173C116.239 56.3194 116.149 56.0193 115.964 55.8173C115.785 55.6156 115.544 55.5018 115.241 55.4757C114.928 55.4488 114.66 55.524 114.438 55.7014C114.222 55.8741 114.069 56.148 113.98 56.5231ZM117.331 60.4502L117.804 59.2807L117.411 59.2468L117.486 58.3766L118.357 58.4515L118.291 59.2139L117.716 60.4834L117.331 60.4502ZM120.824 59.6337C120.449 59.6015 120.128 59.4859 119.861 59.287C119.594 59.0881 119.397 58.8229 119.27 58.4914C119.144 58.1546 119.099 57.7707 119.136 57.3394C119.174 56.903 119.283 56.5322 119.465 56.2272C119.646 55.9221 119.886 55.6945 120.183 55.5442C120.48 55.394 120.817 55.335 121.191 55.3672C121.566 55.3995 121.885 55.5148 122.147 55.7133C122.414 55.9121 122.611 56.1774 122.738 56.5089C122.864 56.8405 122.909 57.2245 122.871 57.6609C122.834 58.0922 122.725 58.4629 122.543 58.7731C122.361 59.0782 122.122 59.3058 121.825 59.4561C121.532 59.6068 121.199 59.666 120.824 59.6337ZM120.877 59.0176C121.252 59.0499 121.553 58.9414 121.782 58.6921C122.016 58.4381 122.153 58.0749 122.194 57.6026C122.234 57.1302 122.161 56.7515 121.973 56.4664C121.791 56.1766 121.513 56.0156 121.138 55.9833C120.764 55.9511 120.459 56.0619 120.225 56.3159C119.992 56.5648 119.855 56.9254 119.814 57.3977C119.773 57.8701 119.847 58.2513 120.034 58.5416C120.221 58.8267 120.502 58.9854 120.877 59.0176ZM123.577 59.7776L123.929 55.696L124.499 55.745L124.441 56.7796L124.381 56.7512C124.462 56.4065 124.595 56.1619 124.778 56.0173C124.966 55.8681 125.205 55.8058 125.492 55.8305L125.893 55.865L125.839 56.4811L125.447 56.4473C125.241 56.4296 125.066 56.4533 124.921 56.5184C124.781 56.5788 124.669 56.6803 124.584 56.823C124.505 56.9611 124.456 57.143 124.436 57.3689L124.224 59.8333L123.577 59.7776ZM128.513 60.2025L128.984 54.7346L129.646 54.7916L129.202 59.9515L128.9 59.5841L131.965 59.848L131.909 60.4949L128.513 60.2025ZM132.504 60.5461L132.856 56.4644L133.503 56.5201L133.151 60.6018L132.504 60.5461ZM132.895 55.8239L132.96 55.0692L133.638 55.1275L133.573 55.8822L132.895 55.8239ZM134.46 60.7144L134.811 56.6328L135.404 56.6838L135.338 57.7255L135.267 57.6495C135.339 57.4126 135.446 57.2227 135.587 57.0797C135.729 56.9316 135.894 56.8268 136.08 56.7652C136.271 56.7041 136.472 56.6827 136.683 56.7008C136.996 56.7277 137.247 56.8191 137.435 56.975C137.628 57.1313 137.764 57.3317 137.841 57.5763C137.924 57.8162 137.953 58.0799 137.928 58.3674L137.702 60.9935L137.055 60.9378L137.265 58.4965C137.287 58.245 137.274 58.0318 137.227 57.8571C137.186 57.6777 137.105 57.5388 136.984 57.4404C136.863 57.337 136.701 57.2764 136.495 57.2587C136.182 57.2318 135.914 57.3096 135.691 57.4921C135.474 57.67 135.35 57.9489 135.317 58.3288L135.107 60.7701L134.46 60.7144ZM138.859 61.0931L139.33 55.6253L139.977 55.681L139.669 59.262L141.845 57.2382L142.707 57.3125L140.948 58.9067L142.425 61.4001L141.64 61.3325L140.472 59.3079L139.598 60.0861L139.506 61.1488L138.859 61.0931ZM144.605 61.6808C144.22 61.6476 143.893 61.5316 143.626 61.3328C143.364 61.1343 143.169 60.8693 143.043 60.5378C142.922 60.2015 142.88 59.8177 142.917 59.3865C142.954 58.9552 143.061 58.5868 143.237 58.2813C143.418 57.9762 143.653 57.7481 143.94 57.597C144.233 57.4412 144.566 57.3794 144.941 57.4117C145.295 57.4422 145.601 57.5538 145.859 57.7467C146.117 57.9344 146.306 58.1938 146.428 58.525C146.555 58.8565 146.598 59.2508 146.559 59.7077L146.542 59.9003L143.577 59.645C143.565 60.0836 143.653 60.4222 143.839 60.6606C144.031 60.8995 144.303 61.0342 144.658 61.0647C144.925 61.0877 145.148 61.0448 145.328 60.9362C145.514 60.8229 145.649 60.6664 145.733 60.4668L146.422 60.5804C146.282 60.9356 146.051 61.2183 145.728 61.4284C145.41 61.6338 145.036 61.7179 144.605 61.6808ZM143.626 59.0751L145.883 59.2694C145.886 58.8714 145.796 58.5714 145.611 58.3693C145.432 58.1677 145.191 58.0538 144.888 58.0278C144.575 58.0008 144.307 58.076 144.085 58.2534C143.868 58.4262 143.716 58.7001 143.626 59.0751ZM148.7 62.0333C148.346 62.0028 148.045 61.889 147.798 61.6919C147.557 61.4953 147.38 61.2318 147.269 60.9016C147.158 60.5713 147.121 60.188 147.159 59.7516C147.196 59.3152 147.298 58.9438 147.464 58.6374C147.63 58.331 147.849 58.1016 148.121 57.9491C148.397 57.7971 148.713 57.7364 149.067 57.7668C149.339 57.7903 149.583 57.8707 149.799 58.0083C150.015 58.1407 150.171 58.317 150.266 58.5372L150.434 56.5811L151.081 56.6368L150.61 62.1047L150.025 62.0543L150.055 61.4362C149.923 61.6472 149.736 61.807 149.494 61.9155C149.252 62.0188 148.987 62.0581 148.7 62.0333ZM148.884 61.4285C149.125 61.4493 149.333 61.4051 149.508 61.296C149.688 61.1874 149.832 61.0239 149.938 60.8055C150.046 60.582 150.112 60.3162 150.139 60.0081C150.166 59.6898 150.146 59.414 150.078 59.1805C150.01 58.9471 149.897 58.7641 149.738 58.6314C149.584 58.4941 149.386 58.415 149.145 58.3942C148.786 58.3633 148.487 58.4746 148.247 58.7281C148.014 58.977 147.877 59.3376 147.836 59.8099C147.796 60.2771 147.869 60.6559 148.057 60.9461C148.249 61.2368 148.525 61.3976 148.884 61.4285ZM151.782 62.2056L152.253 56.7377L152.915 56.7947L152.445 62.2626L151.782 62.2056ZM153.841 62.3828L154.192 58.3011L154.785 58.3521L154.719 59.3938L154.648 59.3179C154.72 59.081 154.827 58.891 154.968 58.7481C155.11 58.6 155.274 58.4951 155.461 58.4336C155.652 58.3725 155.853 58.351 156.064 58.3691C156.377 58.3961 156.628 58.4875 156.816 58.6433C157.009 58.7996 157.145 59.0001 157.222 59.2446C157.305 59.4845 157.334 59.7482 157.309 60.0357L157.083 62.6618L156.436 62.6062L156.646 60.1649C156.668 59.9133 156.655 59.7001 156.608 59.5254C156.567 59.346 156.486 59.2071 156.365 59.1088C156.244 59.0053 156.081 58.9448 155.876 58.9271C155.563 58.9001 155.295 58.9779 155.072 59.1605C154.855 59.3383 154.73 59.6172 154.698 59.9972L154.488 62.4384L153.841 62.3828ZM158.038 62.7441L158.113 61.8739L158.983 61.9488L158.909 62.819L158.038 62.7441ZM159.588 62.8775L159.663 62.0072L160.533 62.0821L160.458 62.9524L159.588 62.8775Z" fill="#94A3B8"/>
<path d="M28.5784 67.6024L200.563 82.4072C202.234 82.5511 203.472 84.0218 203.328 85.6925L202.002 101.096C201.858 102.766 200.387 104.004 198.717 103.86L26.7316 89.0553C25.0609 88.9114 23.8234 87.4407 23.9671 85.77L25.293 70.367C25.437 68.6962 26.9076 67.4587 28.5784 67.6024Z" fill="white"/>
<path d="M28.5784 67.6024L200.563 82.4072C202.234 82.5511 203.472 84.0218 203.328 85.6925L202.002 101.096C201.858 102.766 200.387 104.004 198.717 103.86L26.7316 89.0553C25.0609 88.9114 23.8234 87.4407 23.9671 85.77L25.293 70.367C25.437 68.6962 26.9076 67.4587 28.5784 67.6024Z" stroke="#EEF2FF" stroke-width="0.552122"/>
<path d="M65.4228 82.6162C65.3495 82.6099 65.2793 82.5669 65.2458 82.5271C65.1452 82.4076 65.161 82.2242 65.2805 82.1237L65.8413 81.6178L65.3385 81.0204C65.238 80.9009 65.2538 80.7175 65.3733 80.617C65.4927 80.5164 65.6761 80.5322 65.7767 80.6517L66.447 81.4483C66.5475 81.5678 66.5317 81.7511 66.4122 81.8517L65.6157 82.522C65.5727 82.5922 65.4962 82.6225 65.4228 82.6162Z" fill="#64748B"/>
<path d="M70.0762 80.0611L65.6755 79.6823C65.5288 79.6697 65.3947 79.5104 65.4074 79.3637C65.42 79.217 65.5793 79.0829 65.726 79.0956L70.1267 79.4744C70.2734 79.487 70.4106 79.6097 70.3948 79.793C70.379 79.9764 70.2229 80.0738 70.0762 80.0611Z" fill="#64748B"/>
<path d="M69.9506 81.5264L67.3835 81.3054C67.2368 81.2927 67.0996 81.1701 67.1154 80.9867C67.1312 80.8034 67.2506 80.7028 67.434 80.7186L70.0011 80.9396C70.1478 80.9522 70.285 81.0749 70.2692 81.2582C70.2534 81.4416 70.0973 81.539 69.9506 81.5264Z" fill="#64748B"/>
<path d="M69.8236 82.9951L67.2565 82.7741C67.1099 82.7615 66.9726 82.6389 66.9884 82.4555C67.0042 82.2721 67.1237 82.1716 67.3071 82.1874L69.8741 82.4083C70.0208 82.421 70.158 82.5436 70.1423 82.727C70.1265 82.9103 69.9703 83.0077 69.8236 82.9951Z" fill="#64748B"/>
<path d="M69.6973 84.4635L65.2966 84.0847C65.1499 84.072 65.0127 83.9494 65.0285 83.766C65.0442 83.5827 65.1637 83.4821 65.3471 83.4979L69.7478 83.8767C69.8945 83.8894 70.0317 84.012 70.0159 84.1954C70.0001 84.3787 69.844 84.4761 69.6973 84.4635Z" fill="#64748B"/>
<path d="M75.0358 85.4186L75.5737 79.1696L77.7213 79.3544C78.4606 79.4181 79.0035 79.6008 79.3499 79.9025C79.6963 80.2042 79.8445 80.6455 79.7945 81.2264C79.7713 81.4963 79.6922 81.7289 79.5571 81.9242C79.4221 82.1194 79.241 82.2664 79.0138 82.3651C78.7871 82.4579 78.5241 82.4914 78.2249 82.4656L78.2206 82.4121C78.7546 82.458 79.1617 82.6379 79.4421 82.9517C79.7288 83.2601 79.8525 83.6431 79.8131 84.1008C79.7641 84.67 79.5424 85.0824 79.148 85.3381C78.7536 85.5938 78.2161 85.6923 77.5354 85.6337L75.0358 85.4186ZM75.8564 84.7444L77.5991 84.8944C78.0274 84.9313 78.3636 84.8716 78.6075 84.7152C78.8574 84.5594 78.9965 84.3172 79.0248 83.9886C79.053 83.66 78.9577 83.3947 78.7386 83.1926C78.5259 82.9851 78.2054 82.863 77.7771 82.8261L76.0344 82.6761L75.8564 84.7444ZM76.0981 81.9368L77.4887 82.0565C77.9464 82.0959 78.3057 82.0411 78.5668 81.8921C78.8284 81.7373 78.9726 81.5044 78.9994 81.1934C79.0277 80.8649 78.9283 80.611 78.7014 80.4319C78.4808 80.2474 78.1329 80.1347 77.6576 80.0937L76.267 79.974L76.0981 81.9368ZM82.3316 86.153C81.8681 86.1131 81.5089 85.9255 81.254 85.5903C81.0055 85.2497 80.905 84.8036 80.9525 84.2521L81.2108 81.2508L81.9501 81.3144L81.7092 84.1133C81.6703 84.5651 81.7207 84.9064 81.8605 85.1371C82.0066 85.3625 82.2469 85.4896 82.5813 85.5184C82.951 85.5502 83.2515 85.4578 83.483 85.2413C83.7149 85.0189 83.8488 84.6994 83.8847 84.2828L84.1241 81.5016L84.8634 81.5652L84.4618 86.23L83.7577 86.1694L83.857 85.0164L83.9661 85.0878C83.8394 85.4611 83.6349 85.7421 83.3527 85.9306C83.071 86.1132 82.7306 86.1873 82.3316 86.153ZM86.7871 86.4301C86.5172 86.4069 86.3033 86.3175 86.1452 86.1621C85.9872 86.0066 85.9213 85.7763 85.9476 85.4712L86.4097 80.1023L87.149 80.166L86.6922 85.4732C86.6841 85.5671 86.7012 85.6425 86.7436 85.6993C86.7924 85.7508 86.8637 85.7806 86.9576 85.7887L87.3625 85.8235L87.3064 86.4748L86.7871 86.4301ZM88.1495 86.5474L88.6874 80.2984L89.4267 80.3621L89.0744 84.4547L91.5611 82.1418L92.5469 82.2266L90.5369 84.0486L92.2245 86.8982L91.3268 86.8209L89.9921 84.5071L88.9934 85.3965L88.8888 86.611L88.1495 86.5474ZM95.4276 88.5039L95.9428 82.519L96.6294 82.5781L96.5606 83.5829L96.4595 83.521C96.6067 83.1849 96.8228 82.9405 97.1078 82.7877C97.3993 82.6296 97.7239 82.5659 98.0819 82.5967C98.5454 82.6366 98.914 82.7836 99.1877 83.0377C99.4673 83.2923 99.6615 83.6105 99.7705 83.9923C99.8854 84.3745 99.9244 84.7799 99.8875 85.2082C99.8507 85.6365 99.743 86.0292 99.5645 86.3862C99.3918 86.7438 99.146 87.0241 98.8271 87.2272C98.514 87.4307 98.1257 87.5126 97.6621 87.4727C97.4216 87.452 97.1992 87.3914 96.995 87.2911C96.7967 87.1913 96.6306 87.0617 96.4965 86.9024C96.3683 86.7436 96.2864 86.5622 96.2508 86.3581L96.367 86.244L96.167 88.5676L95.4276 88.5039ZM97.6523 86.7625C98.0572 86.7974 98.3901 86.6723 98.6511 86.3874C98.9121 86.1025 99.066 85.6872 99.113 85.1415C99.16 84.5958 99.0792 84.1603 98.8708 83.835C98.6624 83.5097 98.3557 83.3296 97.9508 83.2947C97.6809 83.2715 97.4407 83.3159 97.2301 83.4278C97.0253 83.5402 96.8561 83.7207 96.7224 83.9693C96.5946 84.2183 96.5142 84.5336 96.4814 84.915C96.4486 85.2964 96.4738 85.6207 96.5572 85.888C96.6406 86.1552 96.7765 86.362 96.9649 86.5083C97.1533 86.6545 97.3824 86.7393 97.6523 86.7625ZM102.06 87.8512C101.578 87.8098 101.204 87.6652 100.935 87.4175C100.673 87.1703 100.559 86.8472 100.593 86.4482C100.628 86.0492 100.772 85.7454 101.026 85.5368C101.281 85.3281 101.667 85.1988 102.186 85.1489L103.867 84.9833C103.901 84.5902 103.832 84.2887 103.661 84.0789C103.496 83.8696 103.228 83.7491 102.859 83.7172C102.536 83.6895 102.275 83.7408 102.074 83.8714C101.874 83.996 101.727 84.1903 101.634 84.4541L100.856 84.3251C100.982 83.8926 101.224 83.5558 101.581 83.3147C101.945 83.0682 102.391 82.9677 102.919 83.0131C103.518 83.0646 103.961 83.2742 104.248 83.6418C104.537 84.0035 104.655 84.4807 104.604 85.0733L104.438 87.0008C104.429 87.1065 104.44 87.1842 104.471 87.2342C104.509 87.2788 104.572 87.3049 104.66 87.3125L104.844 87.3284L104.788 87.9797C104.764 87.9836 104.726 87.9832 104.673 87.9787C104.62 87.98 104.564 87.9781 104.505 87.9731C104.294 87.9549 104.124 87.9077 103.994 87.8316C103.871 87.75 103.786 87.6363 103.74 87.4905C103.694 87.3387 103.681 87.1455 103.701 86.9108L103.788 86.936C103.729 87.1319 103.614 87.3052 103.441 87.4559C103.269 87.6007 103.062 87.7099 102.819 87.7836C102.577 87.8514 102.324 87.8739 102.06 87.8512ZM102.186 87.206C102.497 87.2327 102.766 87.1968 102.993 87.0981C103.227 86.9941 103.411 86.8445 103.546 86.6492C103.682 86.4481 103.761 86.2184 103.783 85.9602L103.812 85.6258L102.274 85.7771C101.952 85.8085 101.724 85.8805 101.59 85.9931C101.463 86.1004 101.391 86.2508 101.374 86.4445C101.355 86.6616 101.417 86.8383 101.559 86.9746C101.707 87.1056 101.916 87.1827 102.186 87.206ZM107.296 88.302C106.879 88.2661 106.53 88.1681 106.248 88.0078C105.972 87.8481 105.762 87.6439 105.618 87.395C105.481 87.1408 105.413 86.8601 105.416 86.553L106.195 86.5669C106.218 86.8526 106.318 87.0888 106.497 87.2756C106.677 87.4566 106.963 87.564 107.356 87.5978C107.673 87.6251 107.93 87.597 108.126 87.5134C108.329 87.4244 108.44 87.2655 108.46 87.0367C108.47 86.9135 108.45 86.8083 108.398 86.7211C108.347 86.6339 108.238 86.5536 108.073 86.4803C107.909 86.4011 107.662 86.3178 107.332 86.2303C106.893 86.1098 106.55 85.9797 106.302 85.8401C106.06 85.6952 105.891 85.5299 105.795 85.3443C105.705 85.1533 105.67 84.9346 105.692 84.6882C105.728 84.2716 105.909 83.9444 106.237 83.7066C106.566 83.4629 107.011 83.3654 107.575 83.4139C107.956 83.4467 108.27 83.5446 108.516 83.7077C108.768 83.8654 108.958 84.0649 109.085 84.3064C109.218 84.5425 109.297 84.7975 109.321 85.0715L108.541 85.0576C108.52 84.8903 108.468 84.741 108.385 84.6097C108.302 84.4725 108.188 84.3621 108.041 84.2786C107.895 84.1892 107.716 84.1354 107.505 84.1172C107.171 84.0884 106.919 84.1317 106.749 84.2472C106.58 84.3626 106.486 84.5201 106.469 84.7196C106.456 84.8722 106.48 85.0014 106.542 85.1072C106.61 85.2076 106.724 85.2972 106.883 85.3759C107.042 85.4487 107.257 85.5204 107.529 85.5911C107.997 85.7142 108.358 85.8458 108.612 85.9858C108.866 86.1259 109.039 86.2856 109.13 86.4648C109.221 86.6441 109.256 86.8569 109.234 87.1034C109.21 87.3909 109.106 87.6302 108.924 87.8215C108.749 88.0073 108.518 88.1412 108.234 88.2231C107.955 88.3055 107.642 88.3318 107.296 88.302ZM111.663 88.5715C111.24 88.5351 110.935 88.4113 110.746 88.2C110.563 87.9892 110.489 87.6784 110.525 87.2677L110.917 82.7085L111.657 82.7722L111.266 87.3137C111.247 87.5249 111.282 87.6757 111.369 87.7659C111.455 87.8561 111.596 87.9096 111.789 87.9262L112.458 87.9838L112.402 88.6351L111.663 88.5715ZM110.081 84.3921L110.137 83.7408L112.804 83.9704L112.748 84.6217L110.081 84.3921ZM115.077 88.9718C114.637 88.9339 114.264 88.8013 113.959 88.5741C113.659 88.3473 113.437 88.0444 113.292 87.6655C113.154 87.2812 113.106 86.8426 113.148 86.3497C113.191 85.8568 113.313 85.4358 113.514 85.0867C113.722 84.738 113.989 84.4773 114.317 84.3046C114.652 84.1265 115.033 84.0559 115.462 84.0928C115.867 84.1276 116.216 84.2553 116.511 84.4757C116.805 84.6902 117.022 84.9867 117.161 85.3651C117.306 85.7441 117.356 86.1947 117.311 86.7169L117.292 86.9369L113.903 86.6452C113.89 87.1465 113.989 87.5334 114.202 87.8059C114.421 88.0789 114.733 88.2328 115.138 88.2677C115.443 88.2939 115.698 88.245 115.904 88.1208C116.116 87.9913 116.271 87.8125 116.367 87.5844L117.154 87.7142C116.995 88.1202 116.731 88.4432 116.361 88.6833C115.998 88.9181 115.57 89.0142 115.077 88.9718ZM113.959 85.9939L116.538 86.2159C116.542 85.7611 116.438 85.4182 116.228 85.1872C116.023 84.9568 115.747 84.8267 115.401 84.7969C115.043 84.7661 114.737 84.8521 114.483 85.0548C114.236 85.2522 114.061 85.5653 113.959 85.9939ZM122.211 89.5859C121.777 89.5485 121.407 89.4162 121.102 89.1889C120.802 88.9621 120.58 88.6593 120.435 88.2803C120.291 87.8955 120.24 87.4567 120.282 86.9638C120.325 86.4709 120.45 86.0502 120.657 85.7015C120.864 85.3529 121.135 85.0925 121.469 84.9202C121.809 84.7427 122.197 84.6725 122.631 84.7099C122.989 84.7407 123.3 84.8326 123.565 84.9854C123.836 85.1328 124.049 85.3344 124.204 85.5902C124.36 85.8459 124.449 86.1491 124.472 86.4999L123.693 86.486C123.667 86.1705 123.552 85.9212 123.349 85.7382C123.147 85.5494 122.887 85.4413 122.57 85.414C122.142 85.3772 121.794 85.5039 121.527 85.7941C121.26 86.0785 121.103 86.4907 121.057 87.0305C121.01 87.5703 121.094 88.0061 121.308 88.3377C121.522 88.6636 121.843 88.8449 122.272 88.8818C122.589 88.9091 122.863 88.844 123.095 88.6867C123.328 88.5294 123.485 88.2769 123.568 87.9294L124.338 88.0489C124.256 88.3905 124.115 88.6829 123.917 88.9259C123.719 89.163 123.474 89.3399 123.18 89.4565C122.892 89.5736 122.569 89.6167 122.211 89.5859ZM126.93 89.9921C126.502 89.9552 126.135 89.8231 125.829 89.5959C125.524 89.3686 125.298 89.0655 125.154 88.6865C125.009 88.3017 124.959 87.8629 125.001 87.37C125.044 86.8713 125.169 86.4476 125.376 86.0989C125.584 85.7503 125.857 85.4901 126.197 85.3184C126.537 85.1467 126.921 85.0792 127.35 85.1161C127.778 85.153 128.142 85.2848 128.442 85.5116C128.747 85.7389 128.972 86.042 129.117 86.4209C129.262 86.7999 129.313 87.2387 129.27 87.7375C129.227 88.2303 129.102 88.654 128.894 89.0085C128.687 89.3572 128.413 89.6173 128.073 89.7891C127.739 89.9613 127.358 90.029 126.93 89.9921ZM126.99 89.288C127.419 89.3249 127.763 89.2008 128.024 88.9159C128.292 88.6256 128.449 88.2106 128.495 87.6708C128.542 87.131 128.458 86.6981 128.243 86.3723C128.035 86.0411 127.717 85.8571 127.289 85.8202C126.861 85.7834 126.513 85.9101 126.245 86.2003C125.979 86.4847 125.822 86.8969 125.776 87.4367C125.729 87.9765 125.813 88.4122 126.027 88.7439C126.241 89.0698 126.562 89.2511 126.99 89.288ZM130.076 90.1566L130.478 85.4918L131.156 85.5502L131.081 86.7318L130.978 86.6875C131.053 86.4339 131.163 86.2217 131.308 86.0509C131.459 85.8748 131.635 85.7451 131.838 85.6621C132.04 85.5731 132.259 85.5387 132.494 85.5589C132.899 85.5938 133.218 85.7336 133.451 85.9783C133.69 86.2234 133.824 86.5483 133.855 86.9529L133.714 86.9319C133.785 86.6661 133.889 86.4475 134.028 86.2762C134.173 86.0996 134.35 85.9699 134.558 85.8874C134.766 85.8048 134.999 85.7746 135.257 85.7968C135.592 85.8256 135.868 85.9203 136.084 86.0808C136.301 86.2355 136.457 86.4499 136.552 86.724C136.647 86.9981 136.678 87.323 136.645 87.6985L136.387 90.6998L135.648 90.6361L135.892 87.7933C135.929 87.3708 135.874 87.0469 135.728 86.8215C135.582 86.5903 135.348 86.4608 135.025 86.433C134.808 86.4143 134.613 86.4507 134.44 86.5422C134.272 86.6342 134.136 86.7761 134.031 86.968C133.926 87.1541 133.861 87.3879 133.837 87.6696L133.597 90.4596L132.858 90.396L133.098 87.6059C133.134 87.1893 133.088 86.8574 132.962 86.61C132.835 86.3627 132.599 86.2241 132.253 86.1943C132.036 86.1756 131.841 86.212 131.667 86.3035C131.5 86.3955 131.36 86.5372 131.249 86.7286C131.144 86.9205 131.08 87.1544 131.056 87.4302L130.816 90.2202L130.076 90.1566ZM137.509 92.1264L138.025 86.1414L138.711 86.2005L138.642 87.2054L138.541 87.1435C138.688 86.8074 138.904 86.563 139.19 86.4102C139.481 86.252 139.806 86.1884 140.164 86.2192C140.627 86.2591 140.996 86.4061 141.269 86.6602C141.549 86.9148 141.743 87.2329 141.852 87.6147C141.967 87.997 142.006 88.4023 141.969 88.8307C141.932 89.259 141.825 89.6517 141.646 90.0087C141.473 90.3662 141.228 90.6465 140.909 90.8496C140.596 91.0532 140.207 91.135 139.744 91.0951C139.503 91.0744 139.281 91.0139 139.077 90.9136C138.878 90.8138 138.712 90.6842 138.578 90.5249C138.45 90.3661 138.368 90.1846 138.332 89.9806L138.449 89.8665L138.249 92.19L137.509 92.1264ZM139.734 90.385C140.139 90.4198 140.472 90.2948 140.733 90.0099C140.994 89.725 141.148 89.3097 141.195 88.764C141.242 88.2183 141.161 87.7828 140.952 87.4575C140.744 87.1322 140.437 86.9521 140.033 86.9172C139.763 86.894 139.522 86.9383 139.312 87.0502C139.107 87.1627 138.938 87.3432 138.804 87.5917C138.676 87.8408 138.596 88.1561 138.563 88.5374C138.53 88.9188 138.556 89.2432 138.639 89.5104C138.722 89.7777 138.858 89.9845 139.047 90.1307C139.235 90.277 139.464 90.3617 139.734 90.385ZM144.141 91.4737C143.66 91.4323 143.285 91.2877 143.017 91.04C142.755 90.7928 142.641 90.4697 142.675 90.0707C142.709 89.6717 142.854 89.3679 143.108 89.1592C143.362 88.9506 143.749 88.8213 144.268 88.7714L145.949 88.6058C145.983 88.2126 145.914 87.9112 145.743 87.7014C145.578 87.4921 145.31 87.3715 144.94 87.3397C144.618 87.3119 144.356 87.3633 144.156 87.4938C143.956 87.6185 143.809 87.8127 143.716 88.0766L142.937 87.9475C143.063 87.5151 143.305 87.1782 143.663 86.9371C144.027 86.6906 144.473 86.5901 145.001 86.6356C145.6 86.6871 146.043 86.8967 146.33 87.2643C146.618 87.626 146.737 88.1032 146.686 88.6958L146.52 90.6233C146.511 90.7289 146.522 90.8067 146.553 90.8567C146.59 90.9013 146.653 90.9274 146.741 90.935L146.926 90.9509L146.87 91.6022C146.846 91.606 146.808 91.6057 146.755 91.6011C146.702 91.6025 146.646 91.6006 146.587 91.5955C146.376 91.5774 146.205 91.5302 146.076 91.454C145.953 91.3725 145.868 91.2588 145.822 91.1129C145.775 90.9612 145.763 90.768 145.783 90.5333L145.869 90.5584C145.811 90.7544 145.696 90.9277 145.523 91.0784C145.351 91.2232 145.144 91.3324 144.901 91.4061C144.658 91.4739 144.405 91.4964 144.141 91.4737ZM144.268 90.8284C144.579 90.8552 144.848 90.8193 145.075 90.7206C145.309 90.6166 145.493 90.4669 145.628 90.2717C145.763 90.0705 145.842 89.8409 145.865 89.5827L145.893 89.2483L144.355 89.3996C144.033 89.431 143.806 89.503 143.672 89.6156C143.544 89.7229 143.472 89.8733 143.456 90.0669C143.437 90.284 143.498 90.4608 143.64 90.5971C143.789 90.7281 143.998 90.8052 144.268 90.8284ZM147.705 91.6741L148.107 87.0093L148.784 87.0677L148.708 88.2581L148.627 88.1713C148.71 87.9006 148.832 87.6835 148.994 87.5201C149.156 87.3509 149.344 87.2311 149.557 87.1607C149.775 87.0909 150.005 87.0663 150.246 87.0871C150.604 87.1179 150.89 87.2223 151.105 87.4005C151.326 87.5791 151.481 87.8081 151.569 88.0877C151.664 88.3618 151.697 88.6632 151.669 88.9918L151.41 91.993L150.671 91.9294L150.911 89.1393C150.936 88.8518 150.922 88.6082 150.868 88.4085C150.82 88.2035 150.728 88.0448 150.59 87.9324C150.452 87.8141 150.266 87.7449 150.031 87.7247C149.673 87.6939 149.367 87.7828 149.113 87.9915C148.865 88.1947 148.722 88.5135 148.685 88.9477L148.444 91.7377L147.705 91.6741ZM152.733 92.1069L153.135 87.4422L153.874 87.5058L153.473 92.1705L152.733 92.1069ZM153.18 86.7101L153.254 85.8476L154.029 85.9143L153.955 86.7768L153.18 86.7101ZM156.609 92.5469C156.169 92.509 155.796 92.3765 155.49 92.1492C155.191 91.9224 154.969 91.6195 154.824 91.2406C154.685 90.8563 154.638 90.4177 154.68 89.9248C154.722 89.4319 154.844 89.0109 155.046 88.6618C155.253 88.3131 155.521 88.0525 155.849 87.8797C156.184 87.7016 156.565 87.631 156.993 87.6679C157.398 87.7028 157.748 87.8304 158.042 88.0508C158.337 88.2653 158.554 88.5618 158.693 88.9402C158.837 89.3192 158.887 89.7698 158.842 90.292L158.823 90.512L155.435 90.2203C155.421 90.7216 155.521 91.1085 155.734 91.381C155.953 91.654 156.265 91.808 156.669 91.8428C156.975 91.8691 157.23 91.8201 157.436 91.696C157.648 91.5665 157.802 91.3876 157.899 91.1595L158.685 91.2893C158.526 91.6953 158.262 92.0183 157.893 92.2584C157.53 92.4932 157.102 92.5893 156.609 92.5469ZM155.491 89.569L158.07 89.791C158.073 89.3362 157.97 88.9933 157.759 88.7624C157.554 88.5319 157.279 88.4018 156.933 88.372C156.575 88.3412 156.269 88.4272 156.015 88.63C155.767 88.8274 155.593 89.1404 155.491 89.569ZM161.333 92.9536C160.917 92.9177 160.567 92.8197 160.286 92.6595C160.01 92.4998 159.8 92.2955 159.656 92.0467C159.518 91.7925 159.451 91.5118 159.453 91.2047L160.232 91.2185C160.255 91.5042 160.356 91.7405 160.535 91.9273C160.714 92.1082 161.001 92.2156 161.394 92.2495C161.711 92.2768 161.967 92.2486 162.164 92.165C162.366 92.0761 162.478 91.9172 162.497 91.6883C162.508 91.5651 162.487 91.4599 162.436 91.3727C162.384 91.2855 162.276 91.2053 162.111 91.1319C161.946 91.0527 161.699 90.9694 161.37 90.882C160.931 90.7614 160.587 90.6314 160.339 90.4918C160.098 90.3468 159.929 90.1816 159.832 89.9959C159.742 89.805 159.708 89.5862 159.729 89.3398C159.765 88.9232 159.947 88.596 160.275 88.3582C160.603 88.1146 161.049 88.017 161.612 88.0655C161.994 88.0983 162.307 88.1963 162.553 88.3593C162.806 88.517 162.995 88.7166 163.122 88.958C163.256 89.1941 163.334 89.4492 163.358 89.7231L162.579 89.7093C162.558 89.5419 162.506 89.3926 162.422 89.2613C162.34 89.1241 162.225 89.0138 162.079 88.9303C161.933 88.8408 161.754 88.787 161.543 88.7689C161.208 88.7401 160.956 88.7834 160.787 88.8988C160.617 89.0143 160.524 89.1718 160.507 89.3713C160.494 89.5238 160.518 89.653 160.58 89.7588C160.648 89.8593 160.761 89.9488 160.92 90.0275C161.079 90.1003 161.295 90.1721 161.567 90.2428C162.035 90.3658 162.396 90.4974 162.65 90.6375C162.904 90.7776 163.076 90.9372 163.167 91.1165C163.258 91.2957 163.293 91.5086 163.272 91.755C163.247 92.0425 163.144 92.2819 162.962 92.4731C162.786 92.659 162.556 92.7929 162.271 92.8747C161.992 92.9571 161.679 92.9834 161.333 92.9536Z" fill="#334155"/>
<mask id="path-24-inside-4_1124_13961" fill="white">
<path d="M22.6673 97.6411C22.7621 96.5406 23.731 95.7252 24.8315 95.82L68.7539 99.6009C69.8544 99.6956 70.6698 100.665 70.575 101.765L69.6816 112.144C69.5869 113.244 68.618 114.059 67.5175 113.965L23.595 110.184C22.4945 110.089 21.6792 109.12 21.7739 108.02L22.6673 97.6411Z"/>
</mask>
<path d="M22.6673 97.6411C22.7621 96.5406 23.731 95.7252 24.8315 95.82L68.7539 99.6009C69.8544 99.6956 70.6698 100.665 70.575 101.765L69.6816 112.144C69.5869 113.244 68.618 114.059 67.5175 113.965L23.595 110.184C22.4945 110.089 21.6792 109.12 21.7739 108.02L22.6673 97.6411Z" fill="#EEF2FF"/>
<path d="M22.8389 95.6484L70.7466 99.7724L22.8389 95.6484M69.6816 112.144C69.5607 113.548 68.3243 114.588 66.92 114.467L24.0978 110.781C22.6935 110.66 21.653 109.424 21.7739 108.02V108.02C21.7053 108.816 22.5419 109.539 23.6424 109.634L67.5648 113.415C68.6653 113.509 69.613 112.94 69.6816 112.144V112.144ZM69.6816 112.144M21.6024 110.012L22.8389 95.6484L21.6024 110.012M21.6024 110.012M70.7466 99.7724L69.5101 114.136L70.7466 99.7724" fill="#EFF1F4" mask="url(#path-24-inside-4_1124_13961)"/>
<path d="M29.1409 106.562C28.6275 106.518 28.1991 106.357 27.8558 106.079C27.5125 105.801 27.2617 105.441 27.1032 104.998C26.9504 104.55 26.8976 104.052 26.9449 103.503C26.9922 102.953 27.132 102.471 27.3642 102.057C27.5964 101.642 27.9054 101.328 28.2911 101.113C28.6824 100.893 29.1348 100.805 29.6482 100.849C30.0846 100.887 30.4449 100.998 30.7289 101.183C31.0182 101.368 31.2383 101.604 31.3895 101.891C31.5457 102.179 31.6427 102.495 31.6802 102.84L30.9832 102.826C30.9469 102.466 30.8228 102.166 30.6107 101.925C30.3991 101.679 30.0597 101.536 29.5925 101.496C29.1767 101.46 28.829 101.534 28.5495 101.717C28.2751 101.9 28.0617 102.156 27.9093 102.484C27.7625 102.808 27.6721 103.167 27.638 103.562C27.6022 103.978 27.6316 104.358 27.7261 104.703C27.821 105.042 27.991 105.32 28.236 105.538C28.4811 105.755 28.8064 105.882 29.212 105.917C29.5355 105.945 29.8215 105.897 30.07 105.773C30.319 105.645 30.5183 105.463 30.6678 105.227C30.8174 104.992 30.9071 104.731 30.937 104.444L29.366 104.308L29.4203 103.677L31.6075 103.865L31.3695 106.63L30.8766 106.588L30.9391 105.321L31.0223 105.436C30.9394 105.677 30.8023 105.888 30.611 106.068C30.4201 106.243 30.1965 106.376 29.9404 106.468C29.6898 106.555 29.4233 106.587 29.1409 106.562ZM34.0336 106.952C33.6588 106.92 33.3377 106.805 33.0703 106.606C32.803 106.407 32.606 106.142 32.4794 105.81C32.3532 105.473 32.3087 105.089 32.3458 104.658C32.3834 104.222 32.4928 103.851 32.6743 103.546C32.8557 103.241 33.0951 103.013 33.3925 102.863C33.6899 102.713 34.026 102.654 34.4008 102.686C34.7756 102.718 35.0941 102.834 35.3563 103.032C35.6237 103.231 35.8207 103.496 35.9473 103.828C36.0739 104.159 36.1184 104.543 36.0809 104.98C36.0438 105.411 35.9343 105.782 35.7524 106.092C35.571 106.397 35.3316 106.624 35.0341 106.775C34.7419 106.925 34.4083 106.985 34.0336 106.952ZM34.0866 106.336C34.4614 106.369 34.7629 106.26 34.9913 106.011C35.2252 105.757 35.3625 105.394 35.4032 104.921C35.4438 104.449 35.3704 104.07 35.1829 103.785C35.0009 103.495 34.7226 103.334 34.3478 103.302C33.973 103.27 33.6686 103.381 33.4347 103.635C33.2012 103.883 33.0642 104.244 33.0235 104.716C32.9828 105.189 33.056 105.57 33.2431 105.86C33.4306 106.145 33.7118 106.304 34.0866 106.336ZM38.373 107.326C37.9982 107.294 37.6771 107.178 37.4098 106.979C37.1424 106.78 36.9455 106.515 36.8188 106.184C36.6926 105.847 36.6481 105.463 36.6852 105.032C36.7228 104.595 36.8323 104.224 37.0137 103.919C37.1952 103.614 37.4346 103.387 37.732 103.236C38.0294 103.086 38.3655 103.027 38.7403 103.059C39.1151 103.092 39.4336 103.207 39.6958 103.405C39.9631 103.604 40.1601 103.87 40.2868 104.201C40.4134 104.533 40.4579 104.917 40.4203 105.353C40.3832 105.784 40.2737 106.155 40.0918 106.465C39.9104 106.77 39.671 106.998 39.3736 107.148C39.0813 107.299 38.7478 107.358 38.373 107.326ZM38.426 106.71C38.8008 106.742 39.1024 106.634 39.3308 106.384C39.5647 106.13 39.702 105.767 39.7426 105.295C39.7833 104.822 39.7099 104.444 39.5223 104.159C39.3404 103.869 39.062 103.708 38.6872 103.676C38.3124 103.643 38.0081 103.754 37.7742 104.008C37.5407 104.257 37.4036 104.618 37.363 105.09C37.3223 105.562 37.3955 105.944 37.5826 106.234C37.7701 106.519 38.0513 106.678 38.426 106.71ZM42.5668 108.851C42.2742 108.825 42.014 108.754 41.7862 108.636C41.5584 108.518 41.3727 108.363 41.229 108.169C41.0853 107.976 40.9954 107.759 40.9592 107.518L41.6409 107.53C41.6862 107.725 41.7812 107.883 41.9259 108.004C42.0754 108.131 42.3067 108.208 42.6199 108.235C42.9895 108.266 43.2783 108.216 43.4862 108.084C43.6993 107.953 43.8186 107.738 43.8442 107.44L43.9012 106.778C43.7851 106.985 43.6137 107.143 43.3871 107.253C43.1604 107.363 42.9135 107.406 42.6466 107.383C42.3026 107.354 42.0018 107.243 41.7443 107.05C41.4919 106.857 41.3015 106.606 41.1731 106.295C41.0499 105.984 41.0048 105.636 41.038 105.251C41.0716 104.861 41.1754 104.526 41.3495 104.246C41.524 103.961 41.7495 103.745 42.0259 103.598C42.3075 103.452 42.6177 103.393 42.9565 103.422C43.244 103.447 43.495 103.536 43.7094 103.689C43.9289 103.842 44.0752 104.036 44.1482 104.27L44.2039 103.623L44.82 103.676L44.4925 107.48C44.4651 107.799 44.3698 108.065 44.2066 108.278C44.0429 108.497 43.8225 108.654 43.5454 108.749C43.2678 108.849 42.9416 108.883 42.5668 108.851ZM42.7304 106.77C43.0795 106.8 43.3697 106.704 43.601 106.48C43.8327 106.252 43.9693 105.928 44.0106 105.507C44.0401 105.225 44.0146 104.98 43.9343 104.771C43.8596 104.558 43.737 104.39 43.5666 104.266C43.4018 104.138 43.2013 104.064 42.9651 104.044C42.6057 104.013 42.3153 104.112 42.0938 104.341C41.878 104.566 41.7519 104.888 41.7157 105.309C41.6794 105.73 41.7508 106.073 41.9298 106.336C42.1144 106.595 42.3813 106.74 42.7304 106.77ZM46.4998 107.932C46.2636 107.912 46.0764 107.834 45.9381 107.698C45.7998 107.562 45.7422 107.36 45.7652 107.093L46.1696 102.396L46.8165 102.451L46.4167 107.095C46.4096 107.177 46.4246 107.243 46.4617 107.293C46.5044 107.338 46.5668 107.364 46.649 107.371L47.0032 107.402L46.9542 107.972L46.4998 107.932ZM49.2931 108.266C48.908 108.233 48.5818 108.117 48.3145 107.918C48.0523 107.719 47.8578 107.454 47.7312 107.123C47.6102 106.787 47.5682 106.403 47.6053 105.972C47.6425 105.54 47.7492 105.172 47.9255 104.866C48.1069 104.561 48.3412 104.333 48.6283 104.182C48.921 104.026 49.2548 103.965 49.6296 103.997C49.9838 104.027 50.2897 104.139 50.5472 104.332C50.8052 104.52 50.9949 104.779 51.1164 105.11C51.243 105.442 51.2867 105.836 51.2474 106.293L51.2308 106.485L48.2658 106.23C48.2539 106.669 48.3411 107.007 48.5275 107.246C48.719 107.485 48.9919 107.619 49.3461 107.65C49.6131 107.673 49.8366 107.63 50.0167 107.521C50.2023 107.408 50.3373 107.252 50.4217 107.052L51.1102 107.166C50.971 107.521 50.7398 107.803 50.4165 108.014C50.0988 108.219 49.7244 108.303 49.2931 108.266ZM48.3149 105.66L50.5713 105.855C50.5746 105.457 50.484 105.157 50.2997 104.954C50.1205 104.753 49.8794 104.639 49.5765 104.613C49.2633 104.586 48.9957 104.661 48.7735 104.839C48.5569 105.011 48.404 105.285 48.3149 105.66Z" fill="#4F46E5"/>
<path d="M63.7161 104.187L58.9366 108.209M59.3154 103.809L63.3373 108.588" stroke="#4F46E5" stroke-width="0.736162" stroke-linecap="round" stroke-linejoin="round"/>
<mask id="path-28-inside-5_1124_13961" fill="white">
<path d="M77.5492 102.366C77.6439 101.265 78.6128 100.45 79.7133 100.545L126.625 104.583C127.725 104.678 128.541 105.646 128.446 106.747L127.552 117.126C127.458 118.226 126.489 119.041 125.388 118.947L78.4769 114.908C77.3764 114.814 76.561 113.845 76.6558 112.744L77.5492 102.366Z"/>
</mask>
<path d="M77.5492 102.366C77.6439 101.265 78.6128 100.45 79.7133 100.545L126.625 104.583C127.725 104.678 128.541 105.646 128.446 106.747L127.552 117.126C127.458 118.226 126.489 119.041 125.388 118.947L78.4769 114.908C77.3764 114.814 76.561 113.845 76.6558 112.744L77.5492 102.366Z" fill="#EEF2FF"/>
<path d="M77.7207 100.373L128.617 104.754L77.7207 100.373M127.552 117.126C127.432 118.53 126.195 119.57 124.791 119.449L78.9796 115.506C77.5753 115.385 76.5349 114.149 76.6558 112.744V112.744C76.5872 113.541 77.4237 114.264 78.5242 114.358L125.436 118.397C126.536 118.491 127.484 117.922 127.552 117.126V117.126ZM127.552 117.126M76.4842 114.737L77.7207 100.373L76.4842 114.737M76.4842 114.737M128.617 104.754L127.381 119.118L128.617 104.754" fill="#EFF1F4" mask="url(#path-28-inside-5_1124_13961)"/>
<path d="M81.3995 110.937L83.8417 105.639L84.7351 105.716L86.2359 111.353L85.512 111.291L85.0991 109.688L82.8042 109.491L82.1235 110.999L81.3995 110.937ZM83.0832 108.863L84.9315 109.022L84.2387 106.255L83.0832 108.863ZM86.8554 111.407L87.2067 107.325L87.7997 107.376L87.734 108.41L87.6442 108.371C87.7099 108.149 87.806 107.964 87.9327 107.814C88.0649 107.66 88.2195 107.547 88.3965 107.474C88.5738 107.396 88.7652 107.366 88.9706 107.384C89.3248 107.414 89.6039 107.536 89.8079 107.751C90.017 107.965 90.1348 108.249 90.1612 108.603L90.0387 108.585C90.1001 108.352 90.1915 108.161 90.313 108.011C90.4401 107.857 90.5947 107.743 90.7768 107.671C90.9589 107.599 91.1629 107.572 91.3888 107.592C91.6814 107.617 91.9225 107.7 92.1122 107.84C92.3022 107.976 92.4387 108.163 92.5215 108.403C92.6043 108.643 92.6315 108.927 92.6032 109.256L92.3772 111.882L91.7303 111.826L91.9444 109.339C91.9762 108.969 91.9282 108.686 91.8003 108.488C91.6729 108.286 91.4681 108.173 91.1857 108.148C90.9957 108.132 90.8249 108.164 90.6732 108.244C90.5266 108.324 90.4073 108.449 90.3152 108.617C90.2236 108.779 90.1672 108.984 90.146 109.23L89.9359 111.672L89.289 111.616L89.4991 109.175C89.5305 108.81 89.4909 108.52 89.3802 108.303C89.2695 108.087 89.0627 107.966 88.7598 107.94C88.5698 107.923 88.399 107.955 88.2473 108.035C88.1007 108.116 87.9788 108.24 87.8817 108.407C87.7896 108.575 87.7332 108.78 87.7124 109.021L87.5023 111.462L86.8554 111.407ZM94.6271 112.169C94.2061 112.132 93.8782 112.006 93.6434 111.789C93.4138 111.573 93.314 111.29 93.3441 110.941C93.3741 110.592 93.5004 110.326 93.723 110.144C93.9456 109.961 94.2838 109.848 94.7376 109.804L96.2086 109.659C96.2382 109.315 96.1781 109.051 96.0284 108.868C95.8839 108.685 95.6499 108.579 95.3264 108.551C95.044 108.527 94.8152 108.572 94.6398 108.686C94.4649 108.795 94.3365 108.965 94.2546 109.196L93.5738 109.083C93.684 108.705 93.8955 108.41 94.2085 108.199C94.527 107.984 94.9174 107.896 95.3794 107.935C95.9031 107.98 96.2908 108.164 96.5424 108.485C96.7944 108.802 96.8981 109.219 96.8535 109.738L96.7083 111.425C96.7004 111.517 96.71 111.585 96.7373 111.629C96.7701 111.668 96.8251 111.691 96.9021 111.697L97.0638 111.711L97.0147 112.281C96.9938 112.284 96.9602 112.284 96.914 112.28C96.8673 112.281 96.8183 112.28 96.767 112.275C96.5821 112.259 96.4331 112.218 96.3199 112.151C96.2122 112.08 96.1381 111.981 96.0973 111.853C96.057 111.72 96.0457 111.551 96.0634 111.346L96.1391 111.368C96.0881 111.539 95.9871 111.691 95.8361 111.823C95.6856 111.949 95.5041 112.045 95.2917 112.109C95.0797 112.169 94.8581 112.189 94.6271 112.169ZM94.7378 111.604C95.0099 111.627 95.2453 111.596 95.4441 111.51C95.6485 111.419 95.8098 111.288 95.9279 111.117C96.0465 110.941 96.1156 110.74 96.135 110.514L96.1602 110.221L94.8144 110.354C94.5327 110.381 94.3333 110.444 94.2162 110.543C94.1047 110.637 94.0416 110.768 94.0271 110.938C94.0107 111.128 94.0646 111.282 94.1888 111.402C94.3186 111.516 94.5016 111.584 94.7378 111.604ZM97.5231 112.325L97.5788 111.678L100.405 109.035L97.9025 108.82L97.9515 108.25L101.163 108.526L101.107 109.173L98.2807 111.816L100.922 112.043L100.873 112.613L97.5231 112.325ZM103.28 112.914C102.905 112.881 102.584 112.766 102.317 112.567C102.049 112.368 101.852 112.103 101.726 111.771C101.6 111.434 101.555 111.05 101.592 110.619C101.63 110.183 101.739 109.812 101.921 109.507C102.102 109.202 102.342 108.974 102.639 108.824C102.936 108.674 103.272 108.615 103.647 108.647C104.022 108.679 104.341 108.795 104.603 108.993C104.87 109.192 105.067 109.457 105.194 109.789C105.32 110.12 105.365 110.504 105.327 110.941C105.29 111.372 105.181 111.743 104.999 112.053C104.817 112.358 104.578 112.586 104.281 112.736C103.988 112.887 103.655 112.946 103.28 112.914ZM103.333 112.297C103.708 112.33 104.009 112.221 104.238 111.972C104.472 111.718 104.609 111.355 104.65 110.882C104.69 110.41 104.617 110.031 104.429 109.746C104.247 109.456 103.969 109.295 103.594 109.263C103.219 109.231 102.915 109.342 102.681 109.596C102.448 109.845 102.311 110.205 102.27 110.678C102.229 111.15 102.302 111.531 102.49 111.821C102.677 112.106 102.958 112.265 103.333 112.297ZM106.033 113.057L106.385 108.976L106.978 109.027L106.911 110.068L106.84 109.993C106.912 109.756 107.019 109.566 107.161 109.423C107.303 109.275 107.467 109.17 107.653 109.108C107.845 109.047 108.046 109.026 108.256 109.044C108.569 109.071 108.82 109.162 109.008 109.318C109.202 109.474 109.337 109.675 109.414 109.919C109.497 110.159 109.526 110.423 109.502 110.71L109.275 113.337L108.629 113.281L108.839 110.84C108.86 110.588 108.848 110.375 108.801 110.2C108.759 110.021 108.678 109.882 108.557 109.783C108.437 109.68 108.274 109.619 108.069 109.602C107.755 109.575 107.487 109.653 107.265 109.835C107.048 110.013 106.923 110.292 106.89 110.672L106.68 113.113L106.033 113.057Z" fill="#4F46E5"/>
<path d="M121.587 109.168L116.808 113.19M117.187 108.789L121.208 113.569" stroke="#4F46E5" stroke-width="0.736162" stroke-linecap="round" stroke-linejoin="round"/>
</g>
<path d="M206.067 133.649L206.114 133.099L9.98518 116.216L9.93783 116.766L9.89048 117.316L206.019 134.199L206.067 133.649Z" fill="#EFF1F4" mask="url(#path-4-inside-1_1124_13961)"/>
</g>
<rect x="19.6703" y="6.92372" width="196.302" height="109.996" rx="6.3494" transform="rotate(4.92 19.6703 6.92372)" stroke="#EAEEF3" stroke-width="0.552122"/>
</g>
<defs>
<filter id="filter0_d_1124_13961" x="-0.00069046" y="-0.000460148" width="225.487" height="146.9" filterUnits="userSpaceOnUse" color-interpolation-filters="sRGB">
<feFlood flood-opacity="0" result="BackgroundImageFix"/>
<feColorMatrix in="SourceAlpha" type="matrix" values="0 0 0 0 0 0 0 0 0 0 0 0 0 0 0 0 0 0 127 0" result="hardAlpha"/>
<feOffset dy="3.31273"/>
<feGaussianBlur stdDeviation="4.9691"/>
<feColorMatrix type="matrix" values="0 0 0 0 0.063 0 0 0 0 0.094 0 0 0 0 0.157 0 0 0 0.06 0"/>
<feBlend mode="normal" in2="BackgroundImageFix" result="effect1_dropShadow_1124_13961"/>
<feBlend mode="normal" in="SourceGraphic" in2="effect1_dropShadow_1124_13961" result="shape"/>
</filter>
<linearGradient id="paint0_linear_1124_13961" x1="119.305" y1="1.64062" x2="119.305" y2="121.402" gradientUnits="userSpaceOnUse">
<stop stop-color="#2476FF" stop-opacity="0"/>
<stop offset="0.417159" stop-color="#2476FF" stop-opacity="0.0842294"/>
<stop offset="1" stop-color="#2476FF"/>
</linearGradient>
<clipPath id="clip0_1124_13961">
<rect x="19.4189" y="6.625" width="196.854" height="110.548" rx="6.62546" transform="rotate(4.92 19.4189 6.625)" fill="white"/>
</clipPath>
<clipPath id="clip1_1124_13961">
<path d="M19.4189 6.625L215.548 23.5081L206.067 133.649L9.93783 116.766L19.4189 6.625Z" fill="white"/>
</clipPath>
<clipPath id="clip2_1124_13961">
<path d="M30.5743 18.6691C30.6789 17.4539 31.7488 16.5536 32.964 16.6582L115.656 23.7764C116.871 23.881 117.771 24.951 117.667 26.1662L116.809 36.1293C116.705 37.3446 115.635 38.2449 114.419 38.1403L31.7276 31.022C30.5123 30.9174 29.612 29.8475 29.7166 28.6323L30.5743 18.6691Z" fill="white"/>
</clipPath>
<clipPath id="clip3_1124_13961">
<rect width="8.83395" height="8.83395" fill="white" transform="translate(39.3252 20.0078) rotate(4.92)"/>
</clipPath>
<clipPath id="clip4_1124_13961">
<path d="M119.866 26.3546C119.971 25.1394 121.041 24.2391 122.256 24.3437L204.948 31.462C206.163 31.5666 207.063 32.6365 206.959 33.8517L206.101 43.8149C205.997 45.0301 204.927 45.9304 203.711 45.8258L121.02 38.7076C119.804 38.603 118.904 37.533 119.009 36.3178L119.866 26.3546Z" fill="white"/>
</clipPath>
<clipPath id="clip5_1124_13961">
<rect width="8.83395" height="8.83395" fill="white" transform="translate(128.617 27.6934) rotate(4.92)"/>
</clipPath>
</defs>
</svg>
